# Blender v2.79 (sub 0) OBJ File: 'player.blend'
# www.blender.org
mtllib player.mtl
o Cube
v -0.195555 0.091189 0.261149
v -0.076724 1.374629 0.212349
v 0.303895 1.111480 0.096157
v -0.089686 1.223741 0.321538
v 0.016620 0.607418 -0.213511
v 0.045436 0.425608 -0.242200
v 0.002165 0.431364 -0.240257
v 0.178468 1.213757 0.315953
v 0.171437 1.365030 0.213490
v 0.252431 0.079274 0.280134
v 0.186298 0.232760 -0.165744
v 0.124686 1.211062 -0.113808
v -0.237806 1.355804 0.005702
v 0.218048 0.835458 -0.139196
v -0.046562 1.413533 -0.108149
v -0.131824 0.233795 -0.165883
v -0.231280 1.136726 0.084325
v 0.244578 0.118448 0.053742
v 0.172818 1.505694 0.071639
v 0.307604 1.156101 0.014819
v -0.082746 1.613716 0.069964
v -0.186877 0.128594 0.038077
v -0.022885 0.395823 -0.273935
v 0.030087 0.686039 -0.234524
v 0.036951 0.425180 -0.224071
v 0.031203 0.584362 -0.240911
v 0.070799 0.402142 -0.269003
v -0.153165 1.201016 -0.129011
v -0.229568 0.677396 -0.122265
v 0.078893 0.402421 -0.250601
v 0.393414 0.613656 0.065564
v -0.339100 0.578056 0.181015
v 0.288520 0.513274 -0.126653
v -0.327887 0.715485 0.042458
v 0.223730 0.573036 0.370214
v -0.011845 0.377493 -0.233821
v 0.060648 0.378614 -0.225147
v -0.034005 0.476664 -0.251360
v -0.151888 0.582892 0.366849
v 0.395900 0.550494 0.210690
v 0.397041 0.207039 0.274120
v 0.022237 0.437064 -0.256993
v -0.018937 0.378200 -0.211251
v -0.187879 0.200793 0.360165
v 0.272766 1.124498 0.172463
v -0.051589 0.403859 -0.272228
v -0.196220 1.143289 0.176486
v 0.066598 0.425160 -0.197769
v 0.261786 1.229710 0.114293
v 0.054495 0.450876 -0.225824
v -0.080418 1.322714 0.291326
v 0.024936 0.639856 -0.215064
v 0.024959 0.445727 -0.250032
v 0.249111 0.191873 0.369519
v -0.002453 0.423944 -0.234964
v 0.172286 1.314213 0.285033
v 0.025569 0.388989 -0.251785
v 0.041569 0.605139 0.407764
v 0.052163 1.439363 0.283068
v 0.026460 0.409577 -0.268765
v 0.291311 0.313550 -0.131380
v -0.328923 0.309802 0.057662
v 0.187818 0.960856 -0.134075
v -0.190289 1.481481 0.019690
v 0.042082 1.417985 -0.098473
v 0.027780 0.091573 0.023504
v 0.229937 0.155770 -0.047459
v 0.160566 1.489369 0.000279
v -0.303647 0.752384 -0.015159
v 0.368119 0.601773 -0.013683
v -0.077165 1.669020 0.005923
v -0.172016 0.160275 -0.051858
v 0.390721 0.271661 0.083020
v 0.265518 1.296529 0.024063
v 0.049923 1.654467 0.104591
v -0.346691 0.228823 0.242971
v -0.182209 1.248020 0.109909
v 0.031692 0.072293 0.264040
v -0.330351 0.634707 0.093533
v 0.246613 0.099910 0.156670
v 0.172692 1.413195 0.132100
v 0.393107 0.584653 0.133038
v -0.077775 1.448594 0.125073
v -0.190144 0.113862 0.132790
v -0.235865 0.355875 -0.130456
v -0.119045 1.305335 -0.124455
v 0.027311 0.222356 -0.190371
v 0.093740 0.393197 -0.265873
v 0.031414 0.467200 -0.225688
v 0.032151 0.687147 -0.250327
v -0.078161 0.321521 -0.255931
v -0.005842 1.026219 -0.209286
v 0.182737 0.422157 -0.222555
v 0.077468 0.849738 -0.213309
v 0.128355 0.323517 -0.254972
v -0.131179 0.561747 -0.220464
v 0.008273 0.417634 -0.245074
v 0.355029 0.537762 0.291940
v -0.298243 0.556972 0.280316
v 0.034138 0.429000 -0.247693
v 0.026056 0.436419 -0.238511
v 0.048489 1.279943 0.405890
v -0.220247 1.411456 -0.034430
v 0.287297 1.085699 -0.042997
v -0.232574 1.206687 0.031813
v 0.304594 1.135186 0.054465
v 0.125914 0.562808 -0.218111
v -0.064796 0.880874 -0.211038
v -0.179735 1.018922 -0.126665
v 0.051537 0.417265 -0.233297
v 0.337445 0.967460 0.032466
v -0.268667 0.945241 0.114920
v 0.242555 0.723415 -0.134834
v -0.269079 1.134526 0.016969
v 0.194208 0.990940 0.334823
v -0.006973 0.396227 -0.236059
v 0.055358 0.394957 -0.231077
v -0.000985 0.561947 -0.226674
v -0.111263 1.002278 0.335780
v 0.335891 0.916391 0.135987
v 0.039559 0.421145 -0.253784
v 0.348074 0.282654 0.320143
v -0.293856 0.299357 0.302755
v 0.003400 0.420178 -0.260018
v -0.001801 0.410038 -0.220978
v 0.241506 1.220379 0.184618
v -0.159744 1.235666 0.188075
v 0.052973 0.487944 -0.209050
v 0.026353 0.448786 -0.240735
v 0.036302 0.200145 0.372966
v 0.027166 0.458892 -0.252718
v 0.050070 1.385418 0.375380
v 0.366083 0.295618 -0.010337
v -0.304299 0.338903 -0.016204
v 0.247713 1.233926 -0.035043
v -0.176337 1.539928 -0.025847
v 0.045669 1.688808 0.026193
v 0.027848 0.128549 -0.077238
v 0.392087 0.242021 0.170552
v 0.262965 1.258509 0.066192
v 0.052777 1.507229 0.176842
v -0.334724 0.271974 0.130826
v -0.184410 1.320633 0.051745
v 0.028573 0.082473 0.130911
v -0.144626 0.373325 -0.233122
v -0.043568 0.948408 -0.209678
v 0.026678 0.330273 -0.269633
v 0.191999 0.340922 -0.232447
v 0.108247 0.648291 -0.216476
v 0.037972 1.023573 -0.210337
v -0.009474 0.391914 -0.223013
v 0.301374 0.920454 0.214013
v -0.231605 0.941839 0.209942
v 0.055309 0.426496 -0.215130
v 0.025738 0.405483 -0.247169
v 0.046096 1.045623 0.406163
v -0.249237 1.182606 -0.028107
v 0.315404 0.917409 -0.032803
v -0.266482 1.010223 0.050625
v 0.335375 0.943733 0.081789
v 0.145675 0.513895 -0.219656
v -0.087881 0.769894 -0.214316
vn -0.1109 -0.9860 -0.1248
vn -0.0546 -0.6562 0.7526
vn -0.5864 -0.4158 0.6952
vn -0.6784 -0.6947 -0.2391
vn -0.5524 0.6717 0.4936
vn -0.8190 0.3949 0.4163
vn -0.8437 0.4540 0.2865
vn -0.5877 0.6970 0.4109
vn 0.1206 0.0727 -0.9900
vn -0.0279 0.0063 -0.9996
vn -0.3612 -0.1443 -0.9213
vn 0.6121 0.1379 -0.7787
vn 0.8792 0.4021 0.2555
vn 0.6478 0.6450 0.4054
vn 0.6545 0.6347 0.4108
vn 0.8849 0.3729 0.2793
vn 0.6695 -0.7136 -0.2066
vn 0.5261 -0.3955 0.7529
vn -0.0244 -0.6360 0.7713
vn 0.0667 -0.9904 -0.1213
vn 0.5152 -0.4694 -0.7171
vn 0.6510 -0.5380 -0.5355
vn 0.1722 -0.7766 -0.6060
vn 0.1254 -0.6199 -0.7746
vn 0.4772 0.1442 -0.8669
vn 0.5015 0.2013 -0.8414
vn 0.4861 0.3188 -0.8137
vn 0.4919 0.2382 -0.8374
vn -0.6145 0.1516 0.7742
vn -0.5984 0.1270 0.7910
vn -0.9395 0.3297 0.0935
vn -0.9539 0.1169 -0.2764
vn 0.0591 0.2650 -0.9624
vn -0.2052 0.2075 -0.9565
vn -0.2324 0.3518 -0.9068
vn 0.0807 0.4152 -0.9062
vn -0.1173 -0.6315 -0.7665
vn -0.1773 -0.7774 -0.6036
vn -0.7260 -0.4470 -0.5226
vn -0.6245 -0.3848 -0.6796
vn 0.7150 -0.6124 -0.3372
vn 0.7127 -0.6769 -0.1839
vn 0.1172 -0.9844 -0.1309
vn 0.1692 -0.9209 -0.3510
vn 0.9001 0.1133 -0.4206
vn 0.7935 0.2574 -0.5514
vn 0.9261 0.2733 0.2600
vn 0.9747 0.1723 0.1421
vn -0.1859 -0.9197 -0.3457
vn -0.1592 -0.9802 -0.1175
vn -0.7486 -0.6202 -0.2346
vn -0.7632 -0.5238 -0.3783
vn 0.1645 0.4096 -0.8973
vn -0.0410 -0.0963 -0.9945
vn -0.3015 -0.0906 -0.9492
vn -0.0812 0.5592 -0.8251
vn -0.5370 0.7363 -0.4118
vn -0.0209 -0.1486 -0.9887
vn 0.0674 0.0124 -0.9976
vn -0.0754 0.1415 -0.9871
vn 0.6114 0.6770 0.4097
vn 0.2848 -0.0084 -0.9585
vn 0.0935 -0.0487 -0.9944
vn -0.0854 0.4556 -0.8861
vn 0.3468 0.8092 0.4743
vn -0.0496 0.9758 0.2128
vn 0.0711 0.2271 -0.9713
vn 0.3230 0.3326 -0.8860
vn 0.9602 -0.0160 -0.2789
vn 0.9264 0.1226 -0.3560
vn 0.9812 0.1678 0.0957
vn 0.9999 -0.0062 -0.0092
vn -0.9980 0.0027 -0.0638
vn -0.8899 0.1737 0.4218
vn -0.9433 0.1116 -0.3126
vn -0.9367 -0.0041 -0.3502
vn -0.3013 0.1565 -0.9406
vn -0.0475 0.1166 -0.9920
vn 0.4848 0.2601 -0.8350
vn 0.1906 0.2708 -0.9436
vn 0.2452 -0.0006 -0.9695
vn -0.7607 -0.6348 0.1351
vn -0.4026 0.3709 0.8368
vn 0.8652 0.3792 -0.3280
vn -0.0349 0.4089 0.9119
vn 0.3325 -0.0311 0.9426
vn 0.4676 -0.6652 -0.5820
vn -0.1853 0.0926 -0.9783
vn 0.4746 0.0517 0.8787
vn 0.6751 0.1717 0.7175
vn 0.3246 0.0502 0.9445
vn 0.0989 -0.0424 0.9942
vn 0.9480 -0.3138 0.0537
vn -0.9241 0.3146 -0.2170
vn -0.4103 0.1197 -0.9041
vn 0.4863 -0.0304 0.8732
vn -0.6531 -0.0124 0.7572
vn 0.5625 0.0547 -0.8250
vn 0.8628 0.1939 -0.4669
vn -0.9456 -0.1114 0.3058
vn -0.1251 -0.0457 0.9911
vn -0.3109 0.0524 0.9490
vn -0.6477 0.1798 0.7403
vn -0.4851 0.0455 0.8733
vn 0.9798 0.1757 0.0954
vn 0.9339 0.2997 0.1948
vn 0.9112 0.2680 0.3127
vn 0.9076 0.2117 0.3626
vn 0.4689 0.1136 -0.8759
vn 0.4206 0.1243 -0.8987
vn 0.5354 0.1761 -0.8261
vn 0.6974 0.0940 -0.7105
vn -0.9104 0.2252 0.3470
vn -0.8947 0.3187 0.3130
vn -0.8667 0.2925 0.4041
vn -0.9519 0.2040 0.2284
vn 0.8161 0.3917 -0.4250
vn 0.8238 0.5664 -0.0227
vn 0.6100 0.3891 0.6903
vn 0.8598 0.3045 0.4099
vn -0.3003 0.8085 0.5061
vn -0.7801 0.4983 0.3783
vn -0.6446 0.1774 0.7436
vn -0.4059 0.3363 0.8498
vn -0.8630 -0.0293 0.5044
vn -0.9671 -0.1391 -0.2131
vn -0.3686 -0.0155 -0.9295
vn -0.3416 0.0751 -0.9368
vn 0.4759 -0.1883 -0.8591
vn 0.8354 -0.0781 0.5440
vn 0.5140 0.0517 -0.8562
vn 0.3069 -0.0062 -0.9517
vn -0.7293 0.0843 -0.6790
vn -0.5109 0.2182 -0.8315
vn -0.3490 0.1443 -0.9259
vn -0.5166 0.0902 -0.8514
vn -0.8390 0.0148 -0.5440
vn -0.7652 0.0890 -0.6376
vn -0.5880 0.1022 -0.8024
vn -0.7121 0.0562 -0.6998
vn -0.8691 0.0726 0.4893
vn -0.8922 0.2328 0.3871
vn -0.9787 0.1888 0.0808
vn -0.9948 0.0025 -0.1020
vn 0.6802 0.0672 -0.7300
vn 0.5411 0.1343 -0.8302
vn 0.7412 0.1047 -0.6631
vn 0.8344 0.0028 -0.5512
vn 0.9990 -0.0065 -0.0452
vn 0.9841 0.1692 0.0543
vn 0.8770 0.2202 0.4271
vn 0.8319 0.0761 0.5497
vn -0.4772 0.0530 0.8772
vn -0.5925 0.2581 0.7631
vn -0.8484 0.2483 0.4675
vn -0.7975 0.1726 0.5781
vn 0.8295 0.1618 0.5345
vn 0.8776 0.2086 0.4317
vn 0.6460 0.2314 0.7274
vn 0.5175 0.0509 0.8542
usemtl Material
s off
f 1//1 84//1 144//1 78//1
f 1//2 78//2 130//2 44//2
f 1//3 44//3 123//3 76//3
f 1//4 76//4 142//4 84//4
f 2//5 59//5 141//5 83//5
f 2//6 83//6 143//6 77//6
f 2//7 77//7 127//7 51//7
f 2//8 51//8 132//8 59//8
f 5//9 118//9 162//9 108//9
f 5//10 108//10 146//10 52//10
f 5//11 52//11 128//11 48//11
f 5//12 48//12 154//12 118//12
f 9//13 49//13 140//13 81//13
f 9//14 81//14 141//14 59//14
f 9//15 59//15 132//15 56//15
f 9//16 56//16 126//16 49//16
f 10//17 80//17 139//17 41//17
f 10//18 41//18 122//18 54//18
f 10//19 54//19 130//19 78//19
f 10//20 78//20 144//20 80//20
f 11//21 95//21 148//21 61//21
f 11//22 61//22 133//22 67//22
f 11//23 67//23 138//23 87//23
f 11//24 87//24 147//24 95//24
f 12//25 63//25 149//25 94//25
f 12//26 94//26 150//26 65//26
f 12//27 65//27 137//27 68//27
f 12//28 68//28 135//28 63//28
f 13//29 114//29 159//29 105//29
f 13//30 105//30 143//30 64//30
f 13//31 64//31 136//31 103//31
f 13//32 103//32 157//32 114//32
f 15//33 65//33 150//33 92//33
f 15//34 92//34 146//34 86//34
f 15//35 86//35 136//35 71//35
f 15//36 71//36 137//36 65//36
f 16//37 91//37 147//37 87//37
f 16//38 87//38 138//38 72//38
f 16//39 72//39 134//39 85//39
f 16//40 85//40 145//40 91//40
f 18//41 67//41 133//41 73//41
f 18//42 73//42 139//42 80//42
f 18//43 80//43 144//43 66//43
f 18//44 66//44 138//44 67//44
f 20//45 111//45 158//45 104//45
f 20//46 104//46 135//46 74//46
f 20//47 74//47 140//47 106//47
f 20//48 106//48 160//48 111//48
f 22//49 72//49 138//49 66//49
f 22//50 66//50 144//50 84//50
f 22//51 84//51 142//51 62//51
f 22//52 62//52 134//52 72//52
f 23//53 42//53 129//53 60//53
f 23//54 60//54 147//54 91//54
f 23//55 91//55 145//55 46//55
f 23//56 46//56 124//56 42//56
f 25//57 110//57 151//57 43//57
f 25//58 43//58 125//58 89//58
f 25//59 89//59 149//59 107//59
f 25//60 107//60 161//60 110//60
f 27//61 53//61 121//61 88//61
f 27//62 88//62 148//62 95//62
f 27//63 95//63 147//63 60//63
f 27//64 60//64 129//64 53//64
f 30//65 88//65 121//65 97//65
f 30//66 97//66 151//66 110//66
f 30//67 110//67 161//67 93//67
f 30//68 93//68 148//68 88//68
f 31//69 73//69 133//69 70//69
f 31//70 70//70 158//70 111//70
f 31//71 111//71 160//71 82//71
f 31//72 82//72 139//72 73//72
f 34//73 62//73 142//73 79//73
f 34//74 79//74 159//74 114//74
f 34//75 114//75 157//75 69//75
f 34//76 69//76 134//76 62//76
f 38//77 46//77 145//77 96//77
f 38//78 96//78 162//78 118//78
f 38//79 118//79 154//79 100//79
f 38//80 100//80 124//80 46//80
usemtl Material.001
f 6//81 117//81 155//81 101//81
f 6//82 101//82 129//82 42//82
f 6//83 42//83 124//83 100//83
f 6//84 100//84 154//84 117//84
f 7//85 116//85 151//85 97//85
f 7//86 97//86 121//86 53//86
f 7//87 53//87 129//87 101//87
f 7//88 101//88 155//88 116//88
f 35//89 54//89 122//89 98//89
f 35//90 98//90 152//90 115//90
f 35//91 115//91 156//91 58//91
f 35//92 58//92 130//92 54//92
f 36//93 55//93 125//93 43//93
f 36//94 43//94 151//94 116//94
f 36//95 116//95 155//95 57//95
f 36//96 57//96 131//96 55//96
f 37//97 50//97 131//97 57//97
f 37//98 57//98 155//98 117//98
f 37//99 117//99 154//99 48//99
f 37//100 48//100 128//100 50//100
f 39//101 44//101 130//101 58//101
f 39//102 58//102 156//102 119//102
f 39//103 119//103 153//103 99//103
f 39//104 99//104 123//104 44//104
usemtl Material.002
f 3//105 120//105 160//105 106//105
f 3//106 106//106 140//106 49//106
f 3//107 49//107 126//107 45//107
f 3//108 45//108 152//108 120//108
f 14//109 113//109 161//109 107//109
f 14//110 107//110 149//110 63//110
f 14//111 63//111 135//111 104//111
f 14//112 104//112 158//112 113//112
f 17//113 112//113 153//113 47//113
f 17//114 47//114 127//114 77//114
f 17//115 77//115 143//115 105//115
f 17//116 105//116 159//116 112//116
f 19//117 74//117 135//117 68//117
f 19//118 68//118 137//118 75//118
f 19//119 75//119 141//119 81//119
f 19//120 81//120 140//120 74//120
f 21//121 75//121 137//121 71//121
f 21//122 71//122 136//122 64//122
f 21//123 64//123 143//123 83//123
f 21//124 83//124 141//124 75//124
f 24//125 90//125 131//125 50//125
f 24//126 50//126 128//126 52//126
f 24//127 52//127 146//127 92//127
f 24//128 92//128 150//128 90//128
f 26//129 89//129 125//129 55//129
f 26//130 55//130 131//130 90//130
f 26//131 90//131 150//131 94//131
f 26//132 94//132 149//132 89//132
f 28//133 109//133 157//133 103//133
f 28//134 103//134 136//134 86//134
f 28//135 86//135 146//135 108//135
f 28//136 108//136 162//136 109//136
f 29//137 85//137 134//137 69//137
f 29//138 69//138 157//138 109//138
f 29//139 109//139 162//139 96//139
f 29//140 96//140 145//140 85//140
f 32//141 76//141 123//141 99//141
f 32//142 99//142 153//142 112//142
f 32//143 112//143 159//143 79//143
f 32//144 79//144 142//144 76//144
f 33//145 61//145 148//145 93//145
f 33//146 93//146 161//146 113//146
f 33//147 113//147 158//147 70//147
f 33//148 70//148 133//148 61//148
f 40//149 41//149 139//149 82//149
f 40//150 82//150 160//150 120//150
f 40//151 120//151 152//151 98//151
f 40//152 98//152 122//152 41//152
usemtl Material.003
f 4//153 119//153 156//153 102//153
f 4//154 102//154 132//154 51//154
f 4//155 51//155 127//155 47//155
f 4//156 47//156 153//156 119//156
f 8//157 115//157 152//157 45//157
f 8//158 45//158 126//158 56//158
f 8//159 56//159 132//159 102//159
f 8//160 102//160 156//160 115//160
