# Blender v2.79 (sub 0) OBJ File: 'shop-2.blend'
# www.blender.org
mtllib shop-2.mtl
o Cube
v 0.500000 0.000000 -0.500000
v 0.500000 0.000000 0.500000
v -0.500000 0.000000 0.500000
v -0.500000 0.000000 -0.500000
v 0.156930 0.447043 -0.203749
v 0.231530 0.319878 0.084669
v -0.216779 0.443278 0.099912
v -0.268837 0.192722 -0.386305
v 0.127741 0.305754 -0.069648
vn 0.0000 -1.0000 0.0000
vn 0.7805 0.6249 0.0165
vn 0.0692 0.7277 0.6824
vn -0.7915 0.6066 -0.0745
vn 0.0112 0.5409 -0.8410
vn -0.1211 0.9832 -0.1368
usemtl Material
s off
f 1//1 2//1 3//1 4//1
f 1//2 5//2 6//2 2//2
f 2//3 6//3 7//3 3//3
f 3//4 7//4 8//4 4//4
f 5//5 1//5 4//5 8//5
usemtl Material.001
f 5//6 8//6 7//6 6//6
