# Blender v2.79 (sub 0) OBJ File: 'tile-special.blend'
# www.blender.org
mtllib tile-special.mtl
o Cube.001
v 1.000000 -0.095930 -0.959299
v 0.959299 -0.100000 -0.959299
v 0.959299 -0.095930 -1.000000
v 1.000000 -0.095930 0.959299
v 0.959299 -0.095930 1.000000
v 0.959299 -0.100000 0.959299
v -0.959299 -0.095930 1.000000
v -1.000000 -0.095930 0.959299
v -0.959299 -0.100000 0.959299
v -0.959299 -0.095930 -1.000000
v -0.959299 -0.100000 -0.959299
v -1.000000 -0.095930 -0.959299
v 0.959300 0.095930 -0.999999
v 0.959300 0.100000 -0.959299
v 1.000000 0.095930 -0.959299
v 0.959298 0.095930 1.000001
v 0.999999 0.095930 0.959300
v 0.959298 0.100000 0.959300
v -1.000000 0.095930 0.959299
v -0.959299 0.095930 1.000000
v -0.959299 0.100000 0.959299
v -1.000000 0.095930 -0.959299
v -0.959299 0.100000 -0.959299
v -0.959299 0.095930 -1.000000
v 1.000000 -0.095930 0.363871
v 0.959299 -0.100000 0.363871
v -1.000000 -0.095930 0.363871
v -0.959299 -0.100000 0.363871
v 0.959299 0.100000 0.363872
v 1.000000 0.095930 0.363872
v -0.959299 0.100000 0.363871
v -1.000000 0.095930 0.363871
vt 0.000000 0.000000
vt 0.000000 0.000000
vt 0.000000 0.000000
vt 0.000000 0.000000
vt 0.000000 0.000000
vt 0.000000 0.000000
vt 0.000000 0.000000
vt 0.000000 0.000000
vt 0.000000 0.000000
vt 0.000000 0.000000
vt 0.000000 0.000000
vt 0.000000 0.000000
vt 0.000000 0.000000
vt 0.000000 0.000000
vt 0.000000 0.000000
vt 0.000000 0.000000
vt 0.000000 0.000000
vt 0.000000 0.000000
vt 0.000000 0.000000
vt 0.000000 0.000000
vt 0.000000 0.000000
vt 0.000000 0.000000
vt 0.000000 0.000000
vt 0.000000 0.000000
vt 0.000000 0.000000
vt 0.000000 0.000000
vt 0.000000 0.000000
vt 0.000000 0.000000
vt 0.000000 0.000000
vt 0.000000 0.000000
vt 0.000000 0.000000
vt 0.000000 0.000000
vt 0.020350 0.318065
vt 0.020350 0.020351
vt 0.979649 0.020350
vt 0.979649 0.318064
vt 0.979650 0.979649
vt 0.020350 0.979650
vn 0.0000 0.0000 -1.0000
vn 0.0000 -1.0000 0.0000
vn -1.0000 -0.0000 -0.0000
vn -0.0000 -0.0000 1.0000
vn 0.0990 -0.9901 -0.0990
vn 0.0990 -0.9901 0.0990
vn -0.0990 -0.9901 0.0990
vn -0.0990 -0.9901 -0.0990
vn 0.0990 0.9901 -0.0990
vn 0.0990 0.9901 0.0990
vn -0.0990 0.9901 0.0990
vn -0.0990 0.9901 -0.0990
vn 0.0995 -0.9950 0.0000
vn 0.0000 -0.9950 -0.0995
vn 0.7071 0.0000 -0.7071
vn -0.0000 -0.9950 0.0995
vn 0.7071 0.0000 0.7071
vn -0.0995 -0.9950 -0.0000
vn -0.7071 -0.0000 0.7071
vn -0.7071 0.0000 -0.7071
vn 0.0995 0.9950 0.0000
vn 0.0000 0.9950 -0.0995
vn -0.0000 0.9950 0.0995
vn -0.0995 0.9950 -0.0000
vn 1.0000 0.0000 0.0000
vn 0.0000 1.0000 0.0000
usemtl Material.001
s off
f 13/1/1 3/2/1 10/3/1 24/4/1
f 26/5/2 6/6/2 9/7/2 28/8/2
f 27/9/3 32/10/3 22/11/3 12/12/3
f 5/13/4 16/14/4 20/15/4 7/16/4
f 1/17/5 2/18/5 3/2/5
f 4/19/6 5/13/6 6/6/6
f 7/16/7 8/20/7 9/7/7
f 10/3/8 11/21/8 12/12/8
f 13/1/9 14/22/9 15/23/9
f 16/14/10 17/24/10 18/25/10
f 19/26/11 20/15/11 21/27/11
f 22/11/12 23/28/12 24/4/12
f 25/29/13 4/19/13 6/6/13 26/5/13
f 2/18/14 11/21/14 10/3/14 3/2/14
f 3/2/15 13/1/15 15/23/15 1/17/15
f 5/13/16 7/16/16 9/7/16 6/6/16
f 4/19/17 17/24/17 16/14/17 5/13/17
f 27/9/18 12/12/18 11/21/18 28/8/18
f 7/16/19 20/15/19 19/26/19 8/20/19
f 12/12/20 22/11/20 24/4/20 10/3/20
f 29/30/21 18/25/21 17/24/21 30/31/21
f 13/1/22 24/4/22 23/28/22 14/22/22
f 18/25/23 21/27/23 20/15/23 16/14/23
f 31/32/24 23/28/24 22/11/24 32/10/24
f 25/29/25 30/31/25 17/24/25 4/19/25
f 1/17/25 15/23/25 30/31/25 25/29/25
f 21/27/24 31/32/24 32/10/24 19/26/24
f 14/22/21 29/30/21 30/31/21 15/23/21
f 8/20/18 27/9/18 28/8/18 9/7/18
f 1/17/13 25/29/13 26/5/13 2/18/13
f 8/20/3 19/26/3 32/10/3 27/9/3
f 2/18/2 26/5/2 28/8/2 11/21/2
usemtl top
f 31/33/26 21/34/26 18/35/26 29/36/26 14/37/26 23/38/26
