# Blender v2.79 (sub 0) OBJ File: 'tile-shop.blend'
# www.blender.org
mtllib tile-shop.mtl
o Cube
v 1.000000 -0.095930 -0.959299
v 0.959299 -0.100000 -0.959299
v 0.959299 -0.095930 -1.000000
v 1.000000 -0.095930 0.959299
v 0.959299 -0.095930 1.000000
v 0.959299 -0.100000 0.959299
v -0.959299 -0.095930 1.000000
v -1.000000 -0.095930 0.959299
v -0.959299 -0.100000 0.959299
v -0.959298 -0.095930 -1.000000
v -0.959298 -0.100000 -0.959299
v -0.999999 -0.095930 -0.959299
v 0.959299 0.095930 -0.999999
v 0.959299 0.100000 -0.959299
v 1.000000 0.095930 -0.959299
v 0.959298 0.095930 1.000001
v 0.999999 0.095930 0.959300
v 0.959298 0.100000 0.959300
v -1.000000 0.095930 0.959299
v -0.959299 0.095930 1.000000
v -0.959299 0.100000 0.959299
v -0.999999 0.095930 -0.959299
v -0.959299 0.100000 -0.959299
v -0.959299 0.095930 -1.000000
v 1.000000 -0.095930 0.363871
v 0.959299 -0.100000 0.363871
v -1.000000 -0.095930 0.363871
v -0.959299 -0.100000 0.363871
v 0.959298 0.100000 0.363872
v 0.999999 0.095930 0.363872
v -0.959299 0.100000 0.363871
v -1.000000 0.095930 0.363871
vn 0.0990 -0.9901 -0.0990
vn 0.0990 -0.9901 0.0990
vn -0.0990 -0.9901 0.0990
vn -0.0990 -0.9901 -0.0990
vn 0.0000 1.0000 0.0000
vn 0.0000 0.0000 -1.0000
vn 0.0000 -1.0000 -0.0000
vn -1.0000 -0.0000 -0.0000
vn -0.0000 -0.0000 1.0000
vn 0.0995 -0.9950 0.0000
vn 0.0000 -0.9950 -0.0995
vn -0.0000 -0.9950 0.0995
vn -0.0995 -0.9950 -0.0000
vn 1.0000 0.0000 0.0000
vn 0.0990 0.9901 -0.0990
vn 0.0990 0.9901 0.0990
vn -0.0990 0.9901 0.0990
vn -0.0990 0.9901 -0.0990
vn 0.7071 -0.0000 -0.7071
vn 0.7071 0.0000 0.7071
vn -0.7071 -0.0000 0.7071
vn -0.7071 0.0000 -0.7071
vn 0.0995 0.9950 0.0000
vn 0.0000 0.9950 -0.0995
vn -0.0000 0.9950 0.0995
vn -0.0995 0.9950 -0.0000
usemtl Main
s off
f 1//1 2//1 3//1
f 4//2 5//2 6//2
f 7//3 8//3 9//3
f 10//4 11//4 12//4
f 14//5 23//5 31//5 29//5
usemtl Material.001
f 13//6 3//6 10//6 24//6
f 26//7 6//7 9//7 28//7
f 27//8 32//8 22//8 12//8
f 5//9 16//9 20//9 7//9
f 25//10 4//10 6//10 26//10
f 2//11 11//11 10//11 3//11
f 5//12 7//12 9//12 6//12
f 27//13 12//13 11//13 28//13
f 25//14 30//14 17//14 4//14
f 1//14 15//14 30//14 25//14
f 8//13 27//13 28//13 9//13
f 1//10 25//10 26//10 2//10
f 8//8 19//8 32//8 27//8
f 2//7 26//7 28//7 11//7
usemtl Material.002
f 29//5 31//5 21//5 18//5
usemtl Selected
f 13//15 14//15 15//15
f 16//16 17//16 18//16
f 19//17 20//17 21//17
f 22//18 23//18 24//18
f 3//19 13//19 15//19 1//19
f 4//20 17//20 16//20 5//20
f 7//21 20//21 19//21 8//21
f 12//22 22//22 24//22 10//22
f 29//23 18//23 17//23 30//23
f 13//24 24//24 23//24 14//24
f 18//25 21//25 20//25 16//25
f 31//26 23//26 22//26 32//26
f 21//26 31//26 32//26 19//26
f 14//23 29//23 30//23 15//23
